<?xml version="1.0" standalone="no"?>
<!DOCTYPE svg PUBLIC "-//W3C//DTD SVG 20010904//EN"
 "http://www.w3.org/TR/2001/REC-SVG-20010904/DTD/svg10.dtd">
<svg version="1.0" xmlns="http://www.w3.org/2000/svg"
 width="5075.000000pt" height="5075.000000pt" viewBox="0 0 5075.000000 5075.000000"
 preserveAspectRatio="xMidYMid meet">
<metadata>
Created by potrace 1.11, written by Peter Selinger 2001-2013
</metadata>
<g transform="translate(0.000000,5075.000000) scale(0.100000,-0.100000)"
fill="#000000" stroke="none">
<path d="M5020 25790 l0 -7670 1945 0 1945 0 0 2635 0 2635 1443 0 c1632 0
1767 5 2282 76 262 36 818 154 842 178 3 3 563 1723 1244 3821 l1238 3817 -71
106 c-315 471 -727 887 -1188 1198 -757 512 -1679 794 -2820 864 -106 6 -1372
10 -3512 10 l-3348 0 0 -7670z m5835 4671 c416 -45 707 -118 962 -241 281
-135 468 -297 645 -559 155 -232 251 -487 305 -816 23 -139 26 -625 5 -775
-66 -466 -225 -833 -484 -1114 -249 -272 -638 -449 -1157 -531 -296 -46 -345
-48 -1303 -52 l-918 -4 0 2056 0 2056 918 -4 c616 -3 953 -8 1027 -16z"/>
<path d="M21435 28520 c-886 -2717 -1612 -4940 -1615 -4940 -3 0 -500 982
-1104 2183 -605 1200 -1115 2211 -1134 2246 -24 43 -37 59 -42 50 -5 -8 -470
-1438 -1034 -3177 l-1027 -3164 56 -96 c31 -54 502 -863 1048 -1799 l992
-1703 2020 0 2020 0 1455 4434 c800 2439 1458 4429 1461 4423 3 -7 628 -2002
1389 -4434 l1384 -4423 2025 0 2026 0 2885 7157 c1587 3937 2978 7388 3092
7670 l206 513 -2056 0 -2057 -1 -2105 -4935 c-1158 -2715 -2108 -4937 -2111
-4939 -3 -2 -680 2219 -1504 4936 l-1499 4939 -1581 0 -1581 0 -1609 -4940z"/>
<path d="M38952 30092 c-551 -1395 -1005 -2546 -1008 -2557 -3 -12 326 -946
796 -2259 440 -1232 800 -2243 800 -2248 0 -4 -762 -8 -1692 -8 l-1693 0 -585
-1481 c-322 -814 -586 -1487 -588 -1495 -3 -12 367 -14 2750 -14 l2753 0 491
-1368 490 -1367 2137 -3 2137 -2 -15 37 c-8 21 -1306 3469 -2885 7663 -1579
4194 -2874 7628 -2878 7632 -4 4 -458 -1135 -1010 -2530z"/>
</g>
</svg>
